<svg width="506" height="465" viewBox="0 0 506 465" fill="none" xmlns="http://www.w3.org/2000/svg">
<path d="M125.854 183.495C125.854 103.758 190.591 39.0223 270.327 39.0223C350.064 39.0223 414.8 103.758 414.8 183.495C414.8 263.232 350.064 327.968 270.327 327.968C190.591 327.968 125.854 263.232 125.854 183.495Z" fill="url(#paint0_linear)"/>
<path d="M371.793 140.169C382.146 154.186 387.562 170.752 387.562 187.955C387.562 208.822 378.961 228.095 364.306 243.705L373.226 276.996H400.305L428.817 244.661L436.463 197.353L438.056 169.159L409.862 137.302L371.793 140.169Z" fill="url(#paint1_linear)"/>
<path d="M57.9985 280.819L62.9363 300.411C62.9363 300.411 121.235 420.035 252.487 464.476C252.487 464.476 375.456 413.505 428.499 327.012L351.722 263.138C351.722 263.138 316.679 291.013 264.593 291.013C212.506 291.013 141.783 259.953 141.783 195.919C141.783 131.886 215.055 108.471 215.055 108.471L183.835 100.825H104.032L53.3792 222.839L57.9985 280.819Z" fill="url(#paint2_linear)"/>
<path d="M499.063 152.275C496.833 150.045 432.162 81.5517 254.877 20.5451L253.762 20.0672C82.051 79.0031 8.14209 152.275 8.14209 152.275C14.8321 191.3 31.7165 234.785 47.008 268.554C48.2823 271.421 68.6709 307.42 83.8031 327.012C74.8831 307.42 65.1666 290.376 65.1666 261.067C65.1666 178.398 129.2 111.179 209.321 108.312C211.232 108.312 213.303 108.312 215.214 108.471L196.1 89.3568C196.1 89.3568 273.035 76.4546 371.793 136.187C371.793 136.187 373.227 139.213 371.793 148.133C371.793 148.133 418.305 168.203 422.287 207.229C426.269 246.254 401.579 268.554 381.669 271.74C381.669 271.74 392.022 255.652 376.094 247.05C372.749 245.139 368.767 244.342 364.784 244.502C334.361 244.502 330.856 279.226 330.856 279.226C330.538 280.978 330.538 282.73 330.538 284.483C330.538 284.483 325.441 335.295 415.915 334.339C415.915 334.339 461.79 282.412 473.896 235.741C478.356 218.538 481.541 205.636 483.612 196.079C488.709 182.539 493.647 168.522 498.426 154.027L499.063 152.275Z" fill="url(#paint3_linear)"/>
<path d="M332.449 151.638C333.723 151.001 337.865 148.93 342.643 143.992C352.2 145.266 361.598 148.293 361.598 148.293C344.236 137.78 320.502 131.568 294.22 131.727C294.22 131.727 304.255 146.063 332.13 151.956C332.13 151.956 332.29 151.797 332.449 151.638Z" fill="#282828"/>
<path d="M252.965 27.713C269.849 32.9695 392.5 73.7468 490.62 154.824L501.611 151.638L500.815 151.001C404.924 69.7646 283.707 27.5537 258.54 19.4301L256.151 18.6337L252.965 17.678L247.39 19.4301C222.223 27.5537 101.006 69.7646 5.11549 151.001L4.00049 151.956L14.6727 155.461C112.793 73.9061 236.081 32.9695 252.965 27.713Z" fill="#282828"/>
<path fill-rule="evenodd" clip-rule="evenodd" d="M500.815 135.868C404.924 54.6324 283.707 12.4215 258.54 4.2979L256.151 3.50146L252.965 2.54575L247.39 4.2979C222.223 12.4215 101.006 54.6324 5.1154 135.868L3.04468 137.621L3.52254 140.328C3.68182 140.966 14.0354 202.609 49.397 272.218C70.2635 313.154 95.5901 348.675 124.58 378.143C160.101 414.142 201.516 440.743 247.549 457.308L250.257 458.264L252.965 459.22L255.832 458.105L258.54 457.149C304.574 440.583 345.829 413.982 381.509 377.984C410.499 348.675 435.826 312.995 456.692 272.058C492.054 202.609 502.567 140.806 502.567 140.169L503.045 137.461L500.815 135.868ZM447.932 267.758C427.543 307.738 402.854 342.622 374.501 371.294C339.298 406.815 298.521 432.938 252.965 449.025C207.409 432.938 166.632 406.974 131.43 371.453C103.077 342.781 78.3871 308.057 57.9985 268.076C27.2562 207.866 15.7876 153.868 13.3983 141.443C111.678 59.0924 235.921 17.9965 252.965 12.5808C269.849 17.9965 394.252 59.0924 492.532 141.443C490.142 153.709 478.515 207.707 447.932 267.758Z" fill="url(#paint4_linear)" stroke="url(#paint5_linear)" stroke-width="4" stroke-miterlimit="10"/>
<defs>
<linearGradient id="paint0_linear" x1="241.248" y1="276.555" x2="326.86" y2="0.684477" gradientUnits="userSpaceOnUse">
<stop offset="0.0391965" stop-color="#2CB2E1"/>
<stop offset="1" stop-color="#2CF4E1"/>
</linearGradient>
<linearGradient id="paint1_linear" x1="346.15" y1="142.131" x2="514.813" y2="206.387" gradientUnits="userSpaceOnUse">
<stop offset="0.0391965" stop-color="#2CF4E1"/>
<stop offset="1" stop-color="#2CB2E1"/>
</linearGradient>
<linearGradient id="paint2_linear" x1="134.067" y1="163.81" x2="306.192" y2="414.156" gradientUnits="userSpaceOnUse">
<stop stop-color="#2CE5E1"/>
<stop offset="1" stop-color="#2CB2E1"/>
</linearGradient>
<linearGradient id="paint3_linear" x1="253.561" y1="334.222" x2="253.561" y2="20.0672" gradientUnits="userSpaceOnUse">
<stop/>
<stop offset="1" stop-color="#0D0D0D"/>
</linearGradient>
<linearGradient id="paint4_linear" x1="252.897" y1="358.225" x2="252.897" y2="-65.1076" gradientUnits="userSpaceOnUse">
<stop offset="0.0391965" stop-color="#2CF4E1"/>
<stop offset="1" stop-color="#2CB2E1"/>
</linearGradient>
<linearGradient id="paint5_linear" x1="-3.89782" y1="230.901" x2="509.691" y2="230.901" gradientUnits="userSpaceOnUse">
<stop offset="0.0391965" stop-color="#2CF4E1"/>
<stop offset="1" stop-color="#2CB2E1"/>
</linearGradient>
</defs>
</svg>
