<svg xmlns="http://www.w3.org/2000/svg" xmlns:xlink="http://www.w3.org/1999/xlink" viewBox="0 0 368.82 348.59"><defs><style>.cls-1{fill:url(#linear-gradient);}.cls-10,.cls-12,.cls-2,.cls-21{opacity:0.9;}.cls-10,.cls-11,.cls-12,.cls-13,.cls-14,.cls-15,.cls-16,.cls-17,.cls-18,.cls-2,.cls-20,.cls-21,.cls-22,.cls-23,.cls-3,.cls-4,.cls-5,.cls-7,.cls-8,.cls-9{isolation:isolate;}.cls-2{fill:url(#linear-gradient-2);}.cls-13,.cls-3,.cls-4,.cls-5{opacity:0.8;}.cls-3{fill:url(#linear-gradient-3);}.cls-4{fill:url(#linear-gradient-4);}.cls-5{fill:url(#linear-gradient-5);}.cls-6{fill:url(#linear-gradient-6);}.cls-23,.cls-7{opacity:0.4;}.cls-7{fill:url(#linear-gradient-7);}.cls-8{opacity:0.2;fill:url(#linear-gradient-8);}.cls-9{opacity:0.3;fill:url(#linear-gradient-9);}.cls-10{fill:url(#linear-gradient-10);}.cls-11,.cls-22{opacity:0.7;}.cls-11{fill:url(#linear-gradient-11);}.cls-12{fill:url(#linear-gradient-12);}.cls-13{fill:url(#linear-gradient-13);}.cls-14,.cls-15,.cls-17{opacity:0.6;}.cls-14{fill:url(#linear-gradient-14);}.cls-15{fill:url(#linear-gradient-15);}.cls-16,.cls-20{opacity:0.95;}.cls-16{fill:url(#linear-gradient-16);}.cls-17{fill:url(#linear-gradient-17);}.cls-18{opacity:0.55;fill:url(#linear-gradient-18);}.cls-19{fill:url(#linear-gradient-19);}.cls-20{fill:url(#linear-gradient-20);}.cls-21{fill:url(#linear-gradient-21);}.cls-22{fill:url(#linear-gradient-22);}.cls-23{fill:url(#linear-gradient-23);}.cls-24{fill:url(#linear-gradient-24);}</style><linearGradient id="linear-gradient" x1="-2.75" y1="687.29" x2="3" y2="684.41" gradientTransform="matrix(72.82, 0, 0, -83.88, 231.74, 57582.77)" gradientUnits="userSpaceOnUse"><stop offset="0" stop-color="#00dc9c"/><stop offset="1" stop-color="#00d3dc"/></linearGradient><linearGradient id="linear-gradient-2" x1="-3.75" y1="687.79" x2="2" y2="684.91" gradientTransform="matrix(72.82, 0, 0, -83.88, 304.57, 57624.77)" xlink:href="#linear-gradient"/><linearGradient id="linear-gradient-3" x1="-3.28" y1="687.56" x2="2.47" y2="684.67" gradientTransform="matrix(72.82, 0, 0, -83.88, 231.74, 57666.65)" xlink:href="#linear-gradient"/><linearGradient id="linear-gradient-4" x1="-4.28" y1="688.06" x2="1.47" y2="685.18" gradientTransform="matrix(72.82, 0, 0, -83.88, 304.57, 57708.65)" xlink:href="#linear-gradient"/><linearGradient id="linear-gradient-5" x1="-3.81" y1="687.82" x2="1.94" y2="684.94" gradientTransform="matrix(72.82, 0, 0, -83.88, 231.74, 57750.54)" xlink:href="#linear-gradient"/><linearGradient id="linear-gradient-6" x1="-4.81" y1="688.33" x2="0.94" y2="685.44" gradientTransform="matrix(72.82, 0, 0, -83.88, 304.57, 57792.54)" xlink:href="#linear-gradient"/><linearGradient id="linear-gradient-7" x1="-1.19" y1="686.51" x2="4.56" y2="683.63" gradientTransform="matrix(72.82, 0, 0, -83.88, 43.51, 57663.82)" xlink:href="#linear-gradient"/><linearGradient id="linear-gradient-8" x1="-2.15" y1="686.99" x2="3.61" y2="684.11" gradientTransform="matrix(72.71, 0, 0, -83.88, 135.38, 57695)" xlink:href="#linear-gradient"/><linearGradient id="linear-gradient-9" x1="-2.35" y1="687.09" x2="3.4" y2="684.21" gradientTransform="matrix(72.82, 0, 0, -83.88, 81.39, 57748.07)" xlink:href="#linear-gradient"/><linearGradient id="linear-gradient-10" x1="-3.09" y1="687.46" x2="2.67" y2="684.58" gradientTransform="matrix(72.71, 0, 0, -83.88, 129.38, 57811.35)" xlink:href="#linear-gradient"/><linearGradient id="linear-gradient-11" x1="-4.46" y1="688.14" x2="1.3" y2="685.26" gradientTransform="matrix(72.71, 0, 0, -83.88, 231.14, 57847.48)" xlink:href="#linear-gradient"/><linearGradient id="linear-gradient-12" x1="-2.36" y1="687.09" x2="3.4" y2="684.21" gradientTransform="matrix(72.71, 0, 0, -83.88, 147.49, 57653.59)" xlink:href="#linear-gradient"/><linearGradient id="linear-gradient-13" x1="-1.79" y1="687.31" x2="3.97" y2="684.42" gradientTransform="matrix(72.82, 0, 0, -83.88, 158.92, 57582.77)" xlink:href="#linear-gradient"/><linearGradient id="linear-gradient-14" x1="-1.11" y1="686.97" x2="4.64" y2="684.09" gradientTransform="matrix(72.82, 0, 0, -83.88, 74.69, 57618.42)" xlink:href="#linear-gradient"/><linearGradient id="linear-gradient-15" x1="-2.17" y1="687.5" x2="3.58" y2="684.62" gradientTransform="matrix(72.82, 0, 0, -83.88, 147.51, 57659.95)" xlink:href="#linear-gradient"/><linearGradient id="linear-gradient-16" x1="-1.36" y1="687.09" x2="4.39" y2="684.21" gradientTransform="matrix(72.82, 0, 0, -83.88, 62.21, 57695)" xlink:href="#linear-gradient"/><linearGradient id="linear-gradient-17" x1="-2.85" y1="687.84" x2="2.91" y2="684.96" gradientTransform="matrix(72.71, 0, 0, -83.88, 159.02, 57750.54)" xlink:href="#linear-gradient"/><linearGradient id="linear-gradient-18" x1="-1.14" y1="686.98" x2="4.61" y2="684.1" gradientTransform="matrix(72.82, 0, 0, -83.88, 8.57, 57770.07)" xlink:href="#linear-gradient"/><linearGradient id="linear-gradient-19" x1="-3.78" y1="688.31" x2="1.97" y2="685.43" gradientTransform="matrix(72.82, 0, 0, -83.88, 304.57, 57666.65)" xlink:href="#linear-gradient"/><linearGradient id="linear-gradient-20" x1="-3.32" y1="688.07" x2="2.43" y2="685.19" gradientTransform="matrix(72.82, 0, 0, -83.88, 231.74, 57708.65)" xlink:href="#linear-gradient"/><linearGradient id="linear-gradient-21" x1="-4.31" y1="688.57" x2="1.44" y2="685.69" gradientTransform="matrix(72.82, 0, 0, -83.88, 304.57, 57750.54)" xlink:href="#linear-gradient"/><linearGradient id="linear-gradient-22" x1="-3.85" y1="688.34" x2="1.91" y2="685.46" gradientTransform="matrix(72.82, 0, 0, -83.88, 231.74, 57792.54)" xlink:href="#linear-gradient"/><linearGradient id="linear-gradient-23" x1="-3.1" y1="687.97" x2="2.65" y2="685.08" gradientTransform="matrix(72.82, 0, 0, -83.88, 142.8, 57827.48)" xlink:href="#linear-gradient"/><linearGradient id="linear-gradient-24" x1="-2.78" y1="687.81" x2="2.97" y2="684.92" gradientTransform="matrix(72.82, 0, 0, -83.88, 231.74, 57624.77)" xlink:href="#linear-gradient"/></defs><title>iotx</title><g id="Layer_2" data-name="Layer 2"><g id="Layer_1-2" data-name="Layer 1"><g id="Page-1"><g id="logo_iotex_color" data-name="logo iotex color"><g id="Group"><g id="Shape"><polygon class="cls-1" points="223.18 0 223.18 83.88 296 42 223.18 0"/><polygon class="cls-2" points="296 42 296 125.88 368.82 83.88 296 42"/><polygon class="cls-3" points="223.18 83.88 223.18 167.76 296 125.88 223.18 83.88"/><polygon class="cls-4" points="296 125.88 296 209.76 368.82 167.76 296 125.88"/><polygon class="cls-5" points="223.18 167.76 223.18 251.65 296 209.76 223.18 167.76"/><polygon class="cls-6" points="296 209.76 296 293.65 368.82 251.65 296 209.76"/><polygon class="cls-7" points="34.94 81.06 34.94 164.94 107.77 122.94 34.94 81.06"/><polygon class="cls-8" points="126.82 112.23 126.82 196.12 199.53 154.24 126.82 112.23"/><polygon class="cls-9" points="72.82 165.29 72.82 249.18 145.65 207.18 72.82 165.29"/><polygon class="cls-10" points="120.82 228.59 120.82 312.47 193.53 270.47 120.82 228.59"/><polygon class="cls-11" points="222.59 264.71 222.59 348.59 295.29 306.59 222.59 264.71"/><polygon class="cls-12" points="138.94 70.82 138.94 154.71 211.65 112.82 138.94 70.82"/><polygon class="cls-13" points="223.18 0 223.18 83.88 150.35 42 223.18 0"/><polygon class="cls-14" points="138.94 35.65 138.94 119.53 66.12 77.53 138.94 35.65"/><polygon class="cls-15" points="211.76 77.18 211.76 161.06 138.94 119.06 211.76 77.18"/><polygon class="cls-16" points="126.47 112.23 126.47 196.12 53.65 154.24 126.47 112.23"/><polygon class="cls-17" points="223.18 167.76 223.18 251.65 150.47 209.76 223.18 167.76"/><polygon class="cls-18" points="72.82 187.29 72.82 271.18 0 229.18 72.82 187.29"/><polygon class="cls-19" points="368.82 83.88 368.82 167.76 296 125.88 368.82 83.88"/><polygon class="cls-20" points="296 125.88 296 209.76 223.18 167.76 296 125.88"/><polygon class="cls-21" points="368.82 167.76 368.82 251.65 296 209.76 368.82 167.76"/><polygon class="cls-22" points="296 209.76 296 293.65 223.18 251.65 296 209.76"/><polygon class="cls-23" points="207.06 244.71 207.06 328.59 134.24 286.71 207.06 244.71"/><polygon class="cls-24" points="296 42 296 125.88 223.18 83.88 296 42"/></g></g></g></g></g></g></svg>